<mxfile host="" modified="2020-07-08T18:22:04.844Z" agent="5.0 (Macintosh; Intel Mac OS X 10_15_5) AppleWebKit/537.36 (KHTML, like Gecko) Code/1.46.1 Chrome/78.0.3904.130 Electron/7.3.1 Safari/537.36" etag="79KcnQKz7lPkyXhA4B10" version="13.1.3">
    <diagram id="G6u2pa_VjVDDQZ0H6Lm_" name="Page-1">
        <mxGraphModel dx="942" dy="530" grid="1" gridSize="10" guides="1" tooltips="1" connect="1" arrows="1" fold="1" page="1" pageScale="1" pageWidth="1100" pageHeight="850" math="0" shadow="0">
            <root>
                <mxCell id="0"/>
                <mxCell id="1" parent="0"/>
                <mxCell id="fZP8IcHrs8CvVbbr-H_v-1" value="" style="whiteSpace=wrap;html=1;aspect=fixed;align=left;" parent="1" vertex="1">
                    <mxGeometry x="20" y="40" width="420" height="420" as="geometry"/>
                </mxCell>
                <mxCell id="fZP8IcHrs8CvVbbr-H_v-132" value="" style="rounded=0;whiteSpace=wrap;html=1;" parent="1" vertex="1">
                    <mxGeometry x="30" y="60" width="400" height="390" as="geometry"/>
                </mxCell>
                <mxCell id="fZP8IcHrs8CvVbbr-H_v-97" value="" style="whiteSpace=wrap;html=1;aspect=fixed;align=left;" parent="1" vertex="1">
                    <mxGeometry x="470" y="480" width="420" height="420" as="geometry"/>
                </mxCell>
                <mxCell id="fZP8IcHrs8CvVbbr-H_v-130" value="" style="rounded=0;whiteSpace=wrap;html=1;" parent="1" vertex="1">
                    <mxGeometry x="475" y="510" width="405" height="380" as="geometry"/>
                </mxCell>
                <mxCell id="fZP8IcHrs8CvVbbr-H_v-47" value="" style="whiteSpace=wrap;html=1;aspect=fixed;align=left;" parent="1" vertex="1">
                    <mxGeometry x="470" y="40" width="420" height="420" as="geometry"/>
                </mxCell>
                <mxCell id="fZP8IcHrs8CvVbbr-H_v-74" value="" style="rounded=0;whiteSpace=wrap;html=1;" parent="1" vertex="1">
                    <mxGeometry x="480" y="260" width="390" height="160" as="geometry"/>
                </mxCell>
                <mxCell id="fZP8IcHrs8CvVbbr-H_v-3" value="" style="rounded=0;whiteSpace=wrap;html=1;" parent="1" vertex="1">
                    <mxGeometry x="40" y="92.5" width="380" height="90" as="geometry"/>
                </mxCell>
                <mxCell id="fZP8IcHrs8CvVbbr-H_v-2" value="APP" style="text;html=1;strokeColor=none;fillColor=none;align=center;verticalAlign=middle;whiteSpace=wrap;rounded=0;" parent="1" vertex="1">
                    <mxGeometry x="20" y="40" width="40" height="20" as="geometry"/>
                </mxCell>
                <mxCell id="fZP8IcHrs8CvVbbr-H_v-4" value="Phenomenon Search: Link to search page&amp;nbsp;" style="text;html=1;strokeColor=none;fillColor=none;align=center;verticalAlign=middle;whiteSpace=wrap;rounded=0;" parent="1" vertex="1">
                    <mxGeometry x="90" y="127.5" width="190" height="20" as="geometry"/>
                </mxCell>
                <mxCell id="fZP8IcHrs8CvVbbr-H_v-48" value="APP" style="text;html=1;strokeColor=none;fillColor=none;align=center;verticalAlign=middle;whiteSpace=wrap;rounded=0;" parent="1" vertex="1">
                    <mxGeometry x="480" y="50" width="40" height="20" as="geometry"/>
                </mxCell>
                <mxCell id="fZP8IcHrs8CvVbbr-H_v-49" value="" style="rounded=0;whiteSpace=wrap;html=1;" parent="1" vertex="1">
                    <mxGeometry x="40" y="212.5" width="380" height="90" as="geometry"/>
                </mxCell>
                <mxCell id="fZP8IcHrs8CvVbbr-H_v-50" value="" style="rounded=0;whiteSpace=wrap;html=1;" parent="1" vertex="1">
                    <mxGeometry x="40" y="342.5" width="380" height="90" as="geometry"/>
                </mxCell>
                <mxCell id="fZP8IcHrs8CvVbbr-H_v-6" value="LocationsContainer" style="text;html=1;strokeColor=none;fillColor=none;align=center;verticalAlign=middle;whiteSpace=wrap;rounded=0;" parent="1" vertex="1">
                    <mxGeometry x="47.5" y="212.5" width="212.5" height="20" as="geometry"/>
                </mxCell>
                <mxCell id="fZP8IcHrs8CvVbbr-H_v-8" value="UsersContainer" style="text;html=1;strokeColor=none;fillColor=none;align=center;verticalAlign=middle;whiteSpace=wrap;rounded=0;" parent="1" vertex="1">
                    <mxGeometry x="40" y="342.5" width="180" height="20" as="geometry"/>
                </mxCell>
                <mxCell id="fZP8IcHrs8CvVbbr-H_v-66" value="" style="rounded=0;whiteSpace=wrap;html=1;" parent="1" vertex="1">
                    <mxGeometry x="480" y="85" width="390" height="355" as="geometry"/>
                </mxCell>
                <mxCell id="fZP8IcHrs8CvVbbr-H_v-67" value="Avi" style="ellipse;whiteSpace=wrap;html=1;aspect=fixed;" parent="1" vertex="1">
                    <mxGeometry x="500" y="110" width="50" height="50" as="geometry"/>
                </mxCell>
                <mxCell id="fZP8IcHrs8CvVbbr-H_v-68" value="Username" style="rounded=0;whiteSpace=wrap;html=1;" parent="1" vertex="1">
                    <mxGeometry x="590" y="105" width="200" height="50" as="geometry"/>
                </mxCell>
                <mxCell id="fZP8IcHrs8CvVbbr-H_v-69" value="Details" style="rounded=0;whiteSpace=wrap;html=1;" parent="1" vertex="1">
                    <mxGeometry x="500" y="170" width="340" height="50" as="geometry"/>
                </mxCell>
                <mxCell id="fZP8IcHrs8CvVbbr-H_v-70" value="EventCard" style="rounded=0;whiteSpace=wrap;html=1;" parent="1" vertex="1">
                    <mxGeometry x="501.25" y="270" width="130" height="70" as="geometry"/>
                </mxCell>
                <mxCell id="fZP8IcHrs8CvVbbr-H_v-77" value="UserShowPage" style="text;html=1;strokeColor=none;fillColor=none;align=center;verticalAlign=middle;whiteSpace=wrap;rounded=0;" parent="1" vertex="1">
                    <mxGeometry x="480" y="85" width="130" height="20" as="geometry"/>
                </mxCell>
                <mxCell id="fZP8IcHrs8CvVbbr-H_v-78" value="" style="whiteSpace=wrap;html=1;aspect=fixed;align=left;" parent="1" vertex="1">
                    <mxGeometry x="20" y="470" width="420" height="420" as="geometry"/>
                </mxCell>
                <mxCell id="fZP8IcHrs8CvVbbr-H_v-80" value="APP" style="text;html=1;strokeColor=none;fillColor=none;align=center;verticalAlign=middle;whiteSpace=wrap;rounded=0;" parent="1" vertex="1">
                    <mxGeometry x="30" y="480" width="40" height="20" as="geometry"/>
                </mxCell>
                <mxCell id="fZP8IcHrs8CvVbbr-H_v-81" value="" style="rounded=0;whiteSpace=wrap;html=1;" parent="1" vertex="1">
                    <mxGeometry x="30" y="515" width="390" height="315" as="geometry"/>
                </mxCell>
                <mxCell id="fZP8IcHrs8CvVbbr-H_v-82" value="Avi" style="ellipse;whiteSpace=wrap;html=1;aspect=fixed;" parent="1" vertex="1">
                    <mxGeometry x="50" y="540" width="50" height="50" as="geometry"/>
                </mxCell>
                <mxCell id="fZP8IcHrs8CvVbbr-H_v-83" value="City Name" style="rounded=0;whiteSpace=wrap;html=1;" parent="1" vertex="1">
                    <mxGeometry x="140" y="535" width="200" height="50" as="geometry"/>
                </mxCell>
                <mxCell id="fZP8IcHrs8CvVbbr-H_v-84" value="Bio" style="rounded=0;whiteSpace=wrap;html=1;" parent="1" vertex="1">
                    <mxGeometry x="50" y="600" width="340" height="50" as="geometry"/>
                </mxCell>
                <mxCell id="fZP8IcHrs8CvVbbr-H_v-89" value="Location Show Page" style="text;html=1;strokeColor=none;fillColor=none;align=center;verticalAlign=middle;whiteSpace=wrap;rounded=0;" parent="1" vertex="1">
                    <mxGeometry x="30" y="515" width="130" height="20" as="geometry"/>
                </mxCell>
                <mxCell id="fZP8IcHrs8CvVbbr-H_v-98" value="" style="rounded=0;whiteSpace=wrap;html=1;" parent="1" vertex="1">
                    <mxGeometry x="482.5" y="615" width="390" height="265" as="geometry"/>
                </mxCell>
                <mxCell id="fZP8IcHrs8CvVbbr-H_v-99" value="APP" style="text;html=1;strokeColor=none;fillColor=none;align=center;verticalAlign=middle;whiteSpace=wrap;rounded=0;" parent="1" vertex="1">
                    <mxGeometry x="480" y="490" width="40" height="20" as="geometry"/>
                </mxCell>
                <mxCell id="fZP8IcHrs8CvVbbr-H_v-100" value="" style="rounded=0;whiteSpace=wrap;html=1;" parent="1" vertex="1">
                    <mxGeometry x="480" y="545" width="390" height="55" as="geometry"/>
                </mxCell>
                <mxCell id="fZP8IcHrs8CvVbbr-H_v-108" value="Search Bar" style="text;html=1;strokeColor=none;fillColor=none;align=center;verticalAlign=middle;whiteSpace=wrap;rounded=0;" parent="1" vertex="1">
                    <mxGeometry x="470" y="550" width="130" height="20" as="geometry"/>
                </mxCell>
                <mxCell id="fZP8IcHrs8CvVbbr-H_v-129" value="Follow" style="rounded=0;whiteSpace=wrap;html=1;" parent="1" vertex="1">
                    <mxGeometry x="800" y="120" width="60" height="20" as="geometry"/>
                </mxCell>
                <mxCell id="fZP8IcHrs8CvVbbr-H_v-131" value="Search Page&amp;nbsp;" style="text;html=1;strokeColor=none;fillColor=none;align=center;verticalAlign=middle;whiteSpace=wrap;rounded=0;" parent="1" vertex="1">
                    <mxGeometry x="486.25" y="515" width="173.75" height="20" as="geometry"/>
                </mxCell>
                <mxCell id="fZP8IcHrs8CvVbbr-H_v-133" value="Index Page" style="text;html=1;strokeColor=none;fillColor=none;align=center;verticalAlign=middle;whiteSpace=wrap;rounded=0;" parent="1" vertex="1">
                    <mxGeometry x="40" y="65" width="110" height="20" as="geometry"/>
                </mxCell>
                <mxCell id="2" value="EventCard" style="rounded=0;whiteSpace=wrap;html=1;" vertex="1" parent="1">
                    <mxGeometry x="658.75" y="270" width="130" height="70" as="geometry"/>
                </mxCell>
                <mxCell id="3" value="&lt;span&gt;EventCard&lt;/span&gt;" style="rounded=0;whiteSpace=wrap;html=1;" vertex="1" parent="1">
                    <mxGeometry x="500" y="350" width="130" height="70" as="geometry"/>
                </mxCell>
                <mxCell id="4" value="EventCard" style="rounded=0;whiteSpace=wrap;html=1;" vertex="1" parent="1">
                    <mxGeometry x="663.75" y="350" width="130" height="70" as="geometry"/>
                </mxCell>
                <mxCell id="5" value="Location Card" style="rounded=0;whiteSpace=wrap;html=1;" vertex="1" parent="1">
                    <mxGeometry x="45" y="232.5" width="85" height="60" as="geometry"/>
                </mxCell>
                <mxCell id="6" value="Location Card" style="rounded=0;whiteSpace=wrap;html=1;" vertex="1" parent="1">
                    <mxGeometry x="142.5" y="232.5" width="85" height="60" as="geometry"/>
                </mxCell>
                <mxCell id="7" value="Location Card" style="rounded=0;whiteSpace=wrap;html=1;" vertex="1" parent="1">
                    <mxGeometry x="242.5" y="232.5" width="85" height="60" as="geometry"/>
                </mxCell>
                <mxCell id="8" value="UserCard" style="rounded=0;whiteSpace=wrap;html=1;" vertex="1" parent="1">
                    <mxGeometry x="47.5" y="365" width="85" height="60" as="geometry"/>
                </mxCell>
                <mxCell id="9" value="UserCard" style="rounded=0;whiteSpace=wrap;html=1;" vertex="1" parent="1">
                    <mxGeometry x="245" y="365" width="85" height="60" as="geometry"/>
                </mxCell>
                <mxCell id="10" value="UserCard" style="rounded=0;whiteSpace=wrap;html=1;" vertex="1" parent="1">
                    <mxGeometry x="150" y="365" width="85" height="60" as="geometry"/>
                </mxCell>
                <mxCell id="11" value="EventCard" style="rounded=0;whiteSpace=wrap;html=1;" vertex="1" parent="1">
                    <mxGeometry x="45" y="670" width="85" height="60" as="geometry"/>
                </mxCell>
                <mxCell id="12" value="EventCard" style="rounded=0;whiteSpace=wrap;html=1;" vertex="1" parent="1">
                    <mxGeometry x="150" y="670" width="85" height="60" as="geometry"/>
                </mxCell>
                <mxCell id="13" value="EventCard" style="rounded=0;whiteSpace=wrap;html=1;" vertex="1" parent="1">
                    <mxGeometry x="255" y="670" width="85" height="60" as="geometry"/>
                </mxCell>
                <mxCell id="14" value="EventCard" style="rounded=0;whiteSpace=wrap;html=1;" vertex="1" parent="1">
                    <mxGeometry x="45" y="750" width="85" height="60" as="geometry"/>
                </mxCell>
                <mxCell id="15" value="EventCard" style="rounded=0;whiteSpace=wrap;html=1;" vertex="1" parent="1">
                    <mxGeometry x="150" y="750" width="85" height="60" as="geometry"/>
                </mxCell>
                <mxCell id="16" value="EventCard" style="rounded=0;whiteSpace=wrap;html=1;" vertex="1" parent="1">
                    <mxGeometry x="255" y="750" width="85" height="60" as="geometry"/>
                </mxCell>
                <mxCell id="17" value="EventCard" style="rounded=0;whiteSpace=wrap;html=1;" vertex="1" parent="1">
                    <mxGeometry x="492.5" y="650" width="85" height="60" as="geometry"/>
                </mxCell>
                <mxCell id="18" value="EventCard" style="rounded=0;whiteSpace=wrap;html=1;" vertex="1" parent="1">
                    <mxGeometry x="492.5" y="730" width="85" height="60" as="geometry"/>
                </mxCell>
                <mxCell id="19" value="EventCard" style="rounded=0;whiteSpace=wrap;html=1;" vertex="1" parent="1">
                    <mxGeometry x="590" y="650" width="85" height="60" as="geometry"/>
                </mxCell>
                <mxCell id="20" value="SearchResultsContainer" style="text;html=1;strokeColor=none;fillColor=none;align=center;verticalAlign=middle;whiteSpace=wrap;rounded=0;" vertex="1" parent="1">
                    <mxGeometry x="470" y="615" width="173.75" height="20" as="geometry"/>
                </mxCell>
                <mxCell id="21" value="EventCard" style="rounded=0;whiteSpace=wrap;html=1;" vertex="1" parent="1">
                    <mxGeometry x="590" y="730" width="85" height="60" as="geometry"/>
                </mxCell>
                <mxCell id="22" value="EventCard" style="rounded=0;whiteSpace=wrap;html=1;" vertex="1" parent="1">
                    <mxGeometry x="686.25" y="650" width="85" height="60" as="geometry"/>
                </mxCell>
                <mxCell id="23" value="EventCard" style="rounded=0;whiteSpace=wrap;html=1;" vertex="1" parent="1">
                    <mxGeometry x="686.25" y="730" width="85" height="60" as="geometry"/>
                </mxCell>
                <mxCell id="24" value="EventCard" style="rounded=0;whiteSpace=wrap;html=1;" vertex="1" parent="1">
                    <mxGeometry x="780" y="650" width="85" height="60" as="geometry"/>
                </mxCell>
                <mxCell id="25" value="EventCard" style="rounded=0;whiteSpace=wrap;html=1;" vertex="1" parent="1">
                    <mxGeometry x="780" y="730" width="85" height="60" as="geometry"/>
                </mxCell>
                <mxCell id="26" value="EventCard" style="rounded=0;whiteSpace=wrap;html=1;" vertex="1" parent="1">
                    <mxGeometry x="492.5" y="800" width="85" height="60" as="geometry"/>
                </mxCell>
                <mxCell id="27" value="EventCard" style="rounded=0;whiteSpace=wrap;html=1;" vertex="1" parent="1">
                    <mxGeometry x="590" y="800" width="85" height="60" as="geometry"/>
                </mxCell>
                <mxCell id="28" value="EventCard" style="rounded=0;whiteSpace=wrap;html=1;" vertex="1" parent="1">
                    <mxGeometry x="686.25" y="800" width="85" height="60" as="geometry"/>
                </mxCell>
                <mxCell id="29" value="EventCard" style="rounded=0;whiteSpace=wrap;html=1;" vertex="1" parent="1">
                    <mxGeometry x="780" y="800" width="85" height="60" as="geometry"/>
                </mxCell>
            </root>
        </mxGraphModel>
    </diagram>
</mxfile>